# xmcd CD database file
#
# Track frame offsets:
#	150
#	9707
#	19240
#	33962
#	48231
#	63781
#	80618
#	105707
#	117039
#	130856
#	150337
#	162732
#
# Disc length: 2343 seconds
#
# Revision: 0
# Processed by: cddbd v1.5.2PL0 Copyright (c) Steve Scherf et al.
# Submitted via: CDex 1.51
#
DISCID=8e09250c
DTITLE=Reverend Shawn Amos - The Reverend Shawn Amos Loves You
DYEAR=2015
DGENRE=Rhythmic Soul
TTITLE0=Days Of Depression
TTITLE1=Brand New Man
TTITLE2=Boogie
TTITLE3=Brothers Keeper
TTITLE4=You're Gonna Miss Me (When I Get Home)
TTITLE5=Joliet Bound
TTITLE6=Will You Be Mine
TTITLE7=The Outlaw
TTITLE8=Bright Lights, Big City
TTITLE9=Hollywood Blues
TTITLE10=Put Together
TTITLE11=The Last Day I'm Loving You
EXTD=YEAR: 2015
EXTT0=
EXTT1=
EXTT2=
EXTT3=
EXTT4=
EXTT5=
EXTT6=
EXTT7=
EXTT8=
EXTT9=
EXTT10=
EXTT11=
PLAYORDER=
